<?xml version="1.0" encoding="UTF-8" standalone="no"?>
<svg
   width="32.085072"
   height="33.074692"
   viewBox="0 0 32.085072 33.074692"
   fill="none"
   version="1.1"
   id="svg7"
   xmlns="http://www.w3.org/2000/svg"
   xmlns:svg="http://www.w3.org/2000/svg">
  <defs
     id="defs7" />
  <path
     d="m 30.20477,16.52759 h -3.4791 c -1.0391,0 -1.881,0.8679 -1.881,1.9389 v 5.2052 c 0,1.071 -0.842,1.9389 -1.881,1.9389 H 9.12277 c -1.0391,0 -1.8811,0.8679 -1.8811,1.939 v 3.5862 c 0,1.071 0.842,1.9389 1.8811,1.9389 h 14.642 c 1.0391,0 1.869,-0.8679 1.869,-1.9389 v -2.8773 c 0,-1.071 0.842,-1.8308 1.8811,-1.8308 h 2.6892 c 1.039,0 1.881,-0.8679 1.881,-1.939 v -6.0447 c 0,-1.071 -0.842,-1.9164 -1.881,-1.9164 z"
     fill="#ffffff"
     id="path5" />
  <path
     d="m 7.24107,9.40309 c 0,-1.0711 0.842,-1.939 1.8811,-1.939 h 13.8324 c 1.0391,0 1.881,-0.8679 1.881,-1.9389 V 1.93895 C 24.83557,0.86788 23.99367,0 22.95457,0 H 8.32027 c -1.039,0 -1.881,0.86788 -1.881,1.93895 v 2.76334 c 0,1.071 -0.8419,1.9389 -1.881,1.9389 H 1.88102 C 0.84195,6.64119 0,7.50909 0,8.58019 v 6.0512 c 0,1.0711 0.84547,1.8954 1.88455,1.8954 h 3.47902 c 1.0391,0 1.8811,-0.8678 1.8811,-1.9389 l -0.0036,-5.1841 z"
     fill="#ffffff"
     id="path6" />
  <path
     d="m 14.40537,12.75779 h 3.3418 c 1.0891,0 1.9726,0.9114 1.9726,2.0333 v 3.4447 c 0,1.1225 -0.8842,2.0332 -1.9726,2.0332 h -3.3418 c -1.089,0 -1.9725,-0.9114 -1.9725,-2.0332 v -3.4447 c 0,-1.1226 0.8842,-2.0333 1.9725,-2.0333 z"
     fill="#ffffff"
     id="path7" />
</svg>
