<?xml version="1.0" encoding="UTF-8" standalone="no"?>
<svg
   width="182.55176"
   height="212.32899"
   viewBox="0 0 182.55176 212.32899"
   fill="none"
   version="1.1"
   id="svg1"
   xmlns="http://www.w3.org/2000/svg"
   xmlns:svg="http://www.w3.org/2000/svg">
  <defs
     id="defs1" />
  <path
     fill-rule="evenodd"
     clip-rule="evenodd"
     d="M 3.7198675,4.70717 C 27.699637,34.1049 54.028837,71.0374 58.287437,77.011 c 0.2271,0.3185 0.3914,0.549 0.4893,0.6856 2.2701,3.1694 4.1442,5.5254 5.5674,7.3146 l 2e-4,2e-4 v 0 c 3.1595,3.9718 4.0969,5.1504 2.2117,6.233 -1.5207,0.873 -3.0894,1.1609 -4.6547,1.1609 -1.7705,0 -3.7652,-0.8612 -5.2176,-2.2528 -1.0266,-0.9834 -8.0512,-11.2885 -17.6166,-26.2799 -7.3188,-11.471 -13.4438,-20.9867 -13.6109,-21.146 -0.3863,-0.3685 -0.3797,-0.356 12.8647,23.5804 8.3163,15.0305 14.005,26.1377 14.005,26.8483 0,1.4454 -0.3905,2.2052 -2.1558,4.1941 -2.9428,3.3166 -4.2584,7.0426 -5.208,14.7536 -1.0646,8.644 -4.0582,14.751 -12.3544,25.201 -4.8563,6.118 -5.6509,7.239 -6.8763,9.705 -1.5434,3.105 -1.9679,4.844 -2.1399,8.765 -0.1818,4.146 0.1723,6.824 1.4262,10.787 1.0978,3.47 2.2436,5.762 5.1729,10.345 2.528,3.954 3.9836,6.893 3.9836,8.043 0,0.915 0.1729,0.916 4.0902,0.023 9.3746,-2.139 16.9867,-5.899 21.2679,-10.508 2.6496,-2.853 3.2717,-4.428 3.2918,-8.337 0.0133,-2.557 -0.0758,-3.092 -0.76,-4.563 -1.1139,-2.395 -3.1417,-4.385 -7.611,-7.471 -5.8561,-4.044 -8.3573,-7.299 -9.0482,-11.776 -0.5667,-3.673 0.0908,-6.265 3.3304,-13.123 3.3531,-7.099 4.1841,-10.124 4.7462,-17.28 0.363,-4.623 0.8658,-6.446 2.1808,-7.909 1.3715,-1.526 2.6061,-2.043 6.0001,-2.512 5.5334,-0.763 9.0568,-2.2091 11.953,-4.9048 2.5124,-2.3385 3.5638,-4.5919 3.7251,-7.984 l 0.1225,-2.5711 -1.404,-1.6534 C 70.974537,78.3916 0.31483447,0 0.00193527,0 -0.06490893,0 1.6082275,2.11837 3.7198675,4.70717 Z M 37.028437,160.465 c 1.1496,-2.057 0.5388,-4.7 -1.3842,-5.992 -1.8169,-1.22 -4.6393,-0.645 -4.6393,0.945 0,0.485 0.2656,0.838 0.8644,1.15 1.0081,0.524 1.0813,1.113 0.2881,2.317 -0.8033,1.22 -0.7385,2.292 0.1829,3.02 1.485,1.175 3.5871,0.529 4.6881,-1.44 z m 34.6016,-112.1405 c -2.2684,-0.3554 -2.364,-0.3971 -1.2966,-0.5628 2.0457,-0.3178 6.876,0.1153 10.2047,0.9148 7.7709,1.8657 14.842,6.6453 22.389803,15.1339 l 2.005,2.2551 2.869,-0.4658 c 12.085,-1.9617 24.379,-0.4027 34.662,4.3954 2.829,1.3201 7.289,3.9477 7.846,4.6229 0.177,0.2152 0.504,1.6005 0.724,3.0786 0.764,5.1139 0.382,9.0338 -1.167,11.9615 -0.842,1.5932 -0.889,2.0981 -0.323,3.4616 0.452,1.088 1.713,1.8932 2.962,1.8915 2.555,-0.0035 5.305,-4.1759 6.58,-9.9815 l 0.506,-2.3061 1.003,1.1474 c 5.5,6.2949 9.821,14.8796 10.563,20.99 l 0.193,1.593 -0.924,-1.448 c -1.592,-2.492 -3.19,-4.189 -5.238,-5.5573 -3.69,-2.4666 -7.593,-3.306 -17.927,-3.8561 -9.334,-0.4968 -14.616,-1.3021 -19.854,-3.0274 -8.913,-2.9349 -13.405,-6.8438 -23.992,-20.8732 -4.701903,-6.2314 -7.608203,-9.6791 -10.499203,-12.4556 -6.5692,-6.3087 -13.024,-9.6173 -21.2867,-10.9119 z m 80.784903,13.9132 c 0.235,-4.1756 0.796,-6.9298 1.923,-9.445 0.446,-0.9956 0.864,-1.8105 0.928,-1.8105 0.065,0 -0.129,0.7349 -0.431,1.6329 -0.819,2.4411 -0.954,5.7798 -0.389,9.6643 0.716,4.9288 1.124,5.64 6.281,10.9641 2.419,2.4973 5.233,5.6469 6.253,6.9991 l 1.855,2.4587 -1.855,-1.7571 c -2.268,-2.1488 -7.484,-6.3395 -8.636,-6.9386 -0.773,-0.4017 -0.888,-0.3948 -1.364,0.0843 -0.439,0.4415 -0.532,1.1048 -0.593,4.2408 -0.095,4.8877 -0.754,8.0248 -2.346,11.1617 -0.861,1.6966 -0.997,1.3345 -0.218,-0.5805 0.582,-1.4298 0.641,-2.0584 0.637,-6.7899 -0.009,-9.5068 -1.127,-11.7923 -7.68,-15.7075 -1.659,-0.9918 -4.395,-2.4222 -6.078,-3.1789 -1.682,-0.7566 -3.019,-1.4156 -2.971,-1.4648 0.186,-0.1866 6.577,1.6975 9.149,2.6968 3.826,1.4866 4.457,1.6793 4.922,1.4999 0.311,-0.1202 0.462,-1.0364 0.613,-3.7298 z M 69.198837,54.9392 c -0.6168,7.3397 2.2324,17.1581 6.8374,23.5619 3.5698,4.9641 9.1035,8.8216 13.1888,9.1942 2.6749,0.2439 3.4788,-0.602 2.2686,-2.3869 -1.68,-2.4785 -3.7464,-6.2946 -4.2933,-7.9284 -0.3396,-1.015 -1.0778,-4.0131 -1.6405,-6.6624 -1.9209,-9.045 -3.809,-12.5674 -8.1703,-15.2428 -1.5893,-0.9751 -4.9833,-2.2511 -6.9517,-2.6137 l -1.0482,-0.1933 z m 77.631103,71.2218 c -21.521,-8.752 -29.101,-16.349 -29.101,-29.1673 0,-1.8863 0.065,-3.4297 0.143,-3.4297 0.079,0 0.911,0.6225 1.85,1.3835 4.364,3.5354 9.251,5.0455 22.78,7.0385 7.96,1.174 12.44,2.121 16.573,3.506 13.135,4.4 21.262,13.329 23.2,25.492 0.563,3.534 0.233,10.161 -0.68,13.654 -0.721,2.759 -2.921,7.731 -3.504,7.922 -0.162,0.053 -0.321,-0.573 -0.362,-1.425 -0.221,-4.567 -2.506,-9.013 -6.343,-12.344 -4.363,-3.787 -10.225,-6.801 -24.556,-12.63 z m -16.148,-0.963 c 0.302,0.909 0.77,2.978 1.039,4.599 1.724,10.362 -3.661,18.734 -14.136,21.978 -1.109,0.343 -5.477,1.207 -9.707,1.918 -8.562603,1.44 -12.384303,2.46 -16.223503,4.328 -2.7227,1.325 -6.0191,3.309 -5.8232,3.506 0.0631,0.064 0.6846,-0.086 1.3807,-0.333 4.8416,-1.717 10.2297,-2.606 18.416003,-3.036 3.249,-0.17 6.944,-0.442 8.212,-0.603 7.293,-0.928 12.348,-3.166 16.279,-7.207 2.187,-2.249 3.491,-4.344 4.542,-7.298 0.666,-1.874 0.756,-2.57 0.761,-5.89 0.006,-3.383 -0.075,-4.002 -0.797,-6.083 -0.945,-2.728 -2.06,-4.775 -3.472,-6.376 l -1.02,-1.156 z m 10.905,22.296 c -2.86,-6.209 -3.516,-12.203 -1.95,-17.793 0.168,-0.598 0.437,-1.087 0.6,-1.087 0.162,0 0.836,0.369 1.499,0.819 1.317,0.896 3.96,2.405 11,6.282 8.786,4.838 13.795,8.584 17.201,12.865 2.983,3.748 4.829,8.017 5.717,13.223 0.504,2.949 0.209,10.045 -0.54,13.014 -2.362,9.363 -7.852,16.717 -15.682,21.009 -1.147,0.628 -2.177,1.144 -2.289,1.147 -0.111,0.002 0.307,-1.071 0.929,-2.386 2.634,-5.562 2.934,-10.972 0.943,-16.993 -1.22,-3.687 -3.706,-8.186 -8.726,-15.79 -5.836,-8.84 -7.267,-11.193 -8.702,-14.31 z m -53.859603,20.364 c -9.0513,1.485 -18.988,6.323 -26.9742,13.134 l -2.3776,2.028 2.0895,0.33 c 10.904,1.719 13.8402,3.244 21.4037,11.114 4.3526,4.528 5.8226,5.536 9.4328,6.467 5.3026,1.367 10.529403,-1.145 12.322403,-5.923 0.801,-2.135 0.694,-5.67 -0.225,-7.445 -2.186,-4.227 -8.554703,-5.593 -11.634403,-2.497 -2.5652,2.579 -1.8178,6.464 1.3726,7.132 0.7304,0.154 0.7096,0.121 -0.1861,-0.288 -1.3963,-0.638 -2.0028,-1.522 -2.0106,-2.929 -0.0178,-3.299 3.7197,-5.151 7.1967,-3.567 2.545803,1.161 3.556803,2.677 3.556803,5.335 0,4.093 -3.448703,7.177 -7.462303,6.673 -2.1453,-0.27 -4.7689,-1.656 -6.1758,-3.262 -3.5399,-4.043 -2.1609,-10.423 2.7815,-12.871 3.7626,-1.863 8.7641,-1.404 12.642603,1.161 4.456,2.948 6.351,5.642 10.189,14.484 1.25,2.879 2.858,6.12 3.573,7.202 3.636,5.497 7.992,8.193 13.239,8.193 2.894,0 5.071,-0.534 7.81,-1.915 2.035,-1.027 4.92,-2.978 4.712,-3.187 -0.059,-0.059 -0.903,0.206 -1.876,0.589 -5.729,2.257 -11.553,2.102 -14.935,-0.399 -2.13,-1.574 -3.848,-4.71 -4.731,-8.632 -0.153,-0.679 -0.657,-3.677 -1.121,-6.663 -1.176,-7.568 -2.305,-10.97 -4.938,-14.874 -2.694,-3.994 -7.873,-7.346 -13.663,-8.843 -3.612403,-0.934 -10.110703,-1.188 -14.011603,-0.547 z m -12.6768,-58.513 c 0.7817,-2.916 3.3068,-5.697 5.9045,-6.503 1.6518,-0.512 5.0661,-0.185 6.6715,0.639 3.1111,1.598 5.3697,5.237 4.8796,7.864 -0.5978,3.203 -5.7405,5.766 -11.6562,5.808 -3.0216,0.021 -4.1375,-0.389 -5.2914,-1.945 -0.7142,-0.964 -0.9848,-4.084 -0.508,-5.863 z m 11.7816,-4.722 c 1.5515,0.957 1.9506,2.372 1.0384,3.681 -0.6284,0.902 -2.5738,1.759 -3.9954,1.759 -2.1358,0 -4.4658,-1.532 -4.4658,-2.935 0,-2.819 4.4681,-4.328 7.4228,-2.505 z"
     fill="#ff007a"
     id="path1" />
</svg>
